<?xml version="1.0" encoding="utf-8" standalone="no"?>
<!DOCTYPE svg PUBLIC "-//W3C//DTD SVG 1.1//EN"
  "http://www.w3.org/Graphics/SVG/1.1/DTD/svg11.dtd">
<svg xmlns:xlink="http://www.w3.org/1999/xlink" width="504pt" height="216pt" viewBox="0 0 504 216" xmlns="http://www.w3.org/2000/svg" version="1.1">
 <metadata>
  <rdf:RDF xmlns:dc="http://purl.org/dc/elements/1.1/" xmlns:cc="http://creativecommons.org/ns#" xmlns:rdf="http://www.w3.org/1999/02/22-rdf-syntax-ns#">
   <cc:Work>
    <dc:type rdf:resource="http://purl.org/dc/dcmitype/StillImage"/>
    <dc:date>2023-12-01T12:11:44.698316</dc:date>
    <dc:format>image/svg+xml</dc:format>
    <dc:creator>
     <cc:Agent>
      <dc:title>Matplotlib v3.8.0, https://matplotlib.org/</dc:title>
     </cc:Agent>
    </dc:creator>
   </cc:Work>
  </rdf:RDF>
 </metadata>
 <defs>
  <style type="text/css">*{stroke-linejoin: round; stroke-linecap: butt}</style>
 </defs>
 <g id="figure_1">
  <g id="patch_1">
   <path d="M 0 216 
L 504 216 
L 504 0 
L 0 0 
z
" style="fill: #ffffff"/>
  </g>
  <g id="axes_1">
   <g id="patch_2">
    <path d="M 63 192.24 
L 453.6 192.24 
L 453.6 25.92 
L 63 25.92 
z
" style="fill: #ffffff"/>
   </g>
   <g id="matplotlib.axis_1">
    <g id="xtick_1">
     <g id="line2d_1">
      <defs>
       <path id="m6f7891f0d8" d="M 0 0 
L 0 3.5 
" style="stroke: #262626; stroke-width: 0.8"/>
      </defs>
      <g>
       <use xlink:href="#m6f7891f0d8" x="80.754545" y="192.24" style="fill: #262626; stroke: #262626; stroke-width: 0.8"/>
      </g>
     </g>
     <g id="text_1">
      <!-- 0 -->
      <g style="fill: #262626" transform="translate(77.974077 206.397813) scale(0.1 -0.1)">
       <defs>
        <path id="ArialMT-30" d="M 266 2259 
Q 266 3072 433 3567 
Q 600 4063 929 4331 
Q 1259 4600 1759 4600 
Q 2128 4600 2406 4451 
Q 2684 4303 2865 4023 
Q 3047 3744 3150 3342 
Q 3253 2941 3253 2259 
Q 3253 1453 3087 958 
Q 2922 463 2592 192 
Q 2263 -78 1759 -78 
Q 1097 -78 719 397 
Q 266 969 266 2259 
z
M 844 2259 
Q 844 1131 1108 757 
Q 1372 384 1759 384 
Q 2147 384 2411 759 
Q 2675 1134 2675 2259 
Q 2675 3391 2411 3762 
Q 2147 4134 1753 4134 
Q 1366 4134 1134 3806 
Q 844 3388 844 2259 
z
" transform="scale(0.015625)"/>
       </defs>
       <use xlink:href="#ArialMT-30"/>
      </g>
     </g>
    </g>
    <g id="xtick_2">
     <g id="line2d_2">
      <g>
       <use xlink:href="#m6f7891f0d8" x="159.14106" y="192.24" style="fill: #262626; stroke: #262626; stroke-width: 0.8"/>
      </g>
     </g>
     <g id="text_2">
      <!-- 500 -->
      <g style="fill: #262626" transform="translate(150.799653 206.397813) scale(0.1 -0.1)">
       <defs>
        <path id="ArialMT-35" d="M 266 1200 
L 856 1250 
Q 922 819 1161 601 
Q 1400 384 1738 384 
Q 2144 384 2425 690 
Q 2706 997 2706 1503 
Q 2706 1984 2436 2262 
Q 2166 2541 1728 2541 
Q 1456 2541 1237 2417 
Q 1019 2294 894 2097 
L 366 2166 
L 809 4519 
L 3088 4519 
L 3088 3981 
L 1259 3981 
L 1013 2750 
Q 1425 3038 1878 3038 
Q 2478 3038 2890 2622 
Q 3303 2206 3303 1553 
Q 3303 931 2941 478 
Q 2500 -78 1738 -78 
Q 1113 -78 717 272 
Q 322 622 266 1200 
z
" transform="scale(0.015625)"/>
       </defs>
       <use xlink:href="#ArialMT-35"/>
       <use xlink:href="#ArialMT-30" x="55.615234"/>
       <use xlink:href="#ArialMT-30" x="111.230469"/>
      </g>
     </g>
    </g>
    <g id="xtick_3">
     <g id="line2d_3">
      <g>
       <use xlink:href="#m6f7891f0d8" x="237.527574" y="192.24" style="fill: #262626; stroke: #262626; stroke-width: 0.8"/>
      </g>
     </g>
     <g id="text_3">
      <!-- 1000 -->
      <g style="fill: #262626" transform="translate(226.405699 206.397813) scale(0.1 -0.1)">
       <defs>
        <path id="ArialMT-31" d="M 2384 0 
L 1822 0 
L 1822 3584 
Q 1619 3391 1289 3197 
Q 959 3003 697 2906 
L 697 3450 
Q 1169 3672 1522 3987 
Q 1875 4303 2022 4600 
L 2384 4600 
L 2384 0 
z
" transform="scale(0.015625)"/>
       </defs>
       <use xlink:href="#ArialMT-31"/>
       <use xlink:href="#ArialMT-30" x="55.615234"/>
       <use xlink:href="#ArialMT-30" x="111.230469"/>
       <use xlink:href="#ArialMT-30" x="166.845703"/>
      </g>
     </g>
    </g>
    <g id="xtick_4">
     <g id="line2d_4">
      <g>
       <use xlink:href="#m6f7891f0d8" x="315.914088" y="192.24" style="fill: #262626; stroke: #262626; stroke-width: 0.8"/>
      </g>
     </g>
     <g id="text_4">
      <!-- 1500 -->
      <g style="fill: #262626" transform="translate(304.792213 206.397813) scale(0.1 -0.1)">
       <use xlink:href="#ArialMT-31"/>
       <use xlink:href="#ArialMT-35" x="55.615234"/>
       <use xlink:href="#ArialMT-30" x="111.230469"/>
       <use xlink:href="#ArialMT-30" x="166.845703"/>
      </g>
     </g>
    </g>
    <g id="xtick_5">
     <g id="line2d_5">
      <g>
       <use xlink:href="#m6f7891f0d8" x="394.300602" y="192.24" style="fill: #262626; stroke: #262626; stroke-width: 0.8"/>
      </g>
     </g>
     <g id="text_5">
      <!-- 2000 -->
      <g style="fill: #262626" transform="translate(383.178727 206.397813) scale(0.1 -0.1)">
       <defs>
        <path id="ArialMT-32" d="M 3222 541 
L 3222 0 
L 194 0 
Q 188 203 259 391 
Q 375 700 629 1000 
Q 884 1300 1366 1694 
Q 2113 2306 2375 2664 
Q 2638 3022 2638 3341 
Q 2638 3675 2398 3904 
Q 2159 4134 1775 4134 
Q 1369 4134 1125 3890 
Q 881 3647 878 3216 
L 300 3275 
Q 359 3922 746 4261 
Q 1134 4600 1788 4600 
Q 2447 4600 2831 4234 
Q 3216 3869 3216 3328 
Q 3216 3053 3103 2787 
Q 2991 2522 2730 2228 
Q 2469 1934 1863 1422 
Q 1356 997 1212 845 
Q 1069 694 975 541 
L 3222 541 
z
" transform="scale(0.015625)"/>
       </defs>
       <use xlink:href="#ArialMT-32"/>
       <use xlink:href="#ArialMT-30" x="55.615234"/>
       <use xlink:href="#ArialMT-30" x="111.230469"/>
       <use xlink:href="#ArialMT-30" x="166.845703"/>
      </g>
     </g>
    </g>
   </g>
   <g id="matplotlib.axis_2">
    <g id="ytick_1">
     <g id="line2d_6">
      <defs>
       <path id="m6e8b232de1" d="M 0 0 
L -3.5 0 
" style="stroke: #262626; stroke-width: 0.8"/>
      </defs>
      <g>
       <use xlink:href="#m6e8b232de1" x="63" y="175.939167" style="fill: #262626; stroke: #262626; stroke-width: 0.8"/>
      </g>
     </g>
     <g id="text_6">
      <!-- 800 -->
      <g style="fill: #262626" transform="translate(39.317188 179.518073) scale(0.1 -0.1)">
       <defs>
        <path id="ArialMT-38" d="M 1131 2484 
Q 781 2613 612 2850 
Q 444 3088 444 3419 
Q 444 3919 803 4259 
Q 1163 4600 1759 4600 
Q 2359 4600 2725 4251 
Q 3091 3903 3091 3403 
Q 3091 3084 2923 2848 
Q 2756 2613 2416 2484 
Q 2838 2347 3058 2040 
Q 3278 1734 3278 1309 
Q 3278 722 2862 322 
Q 2447 -78 1769 -78 
Q 1091 -78 675 323 
Q 259 725 259 1325 
Q 259 1772 486 2073 
Q 713 2375 1131 2484 
z
M 1019 3438 
Q 1019 3113 1228 2906 
Q 1438 2700 1772 2700 
Q 2097 2700 2305 2904 
Q 2513 3109 2513 3406 
Q 2513 3716 2298 3927 
Q 2084 4138 1766 4138 
Q 1444 4138 1231 3931 
Q 1019 3725 1019 3438 
z
M 838 1322 
Q 838 1081 952 856 
Q 1066 631 1291 507 
Q 1516 384 1775 384 
Q 2178 384 2440 643 
Q 2703 903 2703 1303 
Q 2703 1709 2433 1975 
Q 2163 2241 1756 2241 
Q 1359 2241 1098 1978 
Q 838 1716 838 1322 
z
" transform="scale(0.015625)"/>
       </defs>
       <use xlink:href="#ArialMT-38"/>
       <use xlink:href="#ArialMT-30" x="55.615234"/>
       <use xlink:href="#ArialMT-30" x="111.230469"/>
      </g>
     </g>
    </g>
    <g id="ytick_2">
     <g id="line2d_7">
      <g>
       <use xlink:href="#m6e8b232de1" x="63" y="139.571075" style="fill: #262626; stroke: #262626; stroke-width: 0.8"/>
      </g>
     </g>
     <g id="text_7">
      <!-- 900 -->
      <g style="fill: #262626" transform="translate(39.317188 143.149981) scale(0.1 -0.1)">
       <defs>
        <path id="ArialMT-39" d="M 350 1059 
L 891 1109 
Q 959 728 1153 556 
Q 1347 384 1650 384 
Q 1909 384 2104 503 
Q 2300 622 2425 820 
Q 2550 1019 2634 1356 
Q 2719 1694 2719 2044 
Q 2719 2081 2716 2156 
Q 2547 1888 2255 1720 
Q 1963 1553 1622 1553 
Q 1053 1553 659 1965 
Q 266 2378 266 3053 
Q 266 3750 677 4175 
Q 1088 4600 1706 4600 
Q 2153 4600 2523 4359 
Q 2894 4119 3086 3673 
Q 3278 3228 3278 2384 
Q 3278 1506 3087 986 
Q 2897 466 2520 194 
Q 2144 -78 1638 -78 
Q 1100 -78 759 220 
Q 419 519 350 1059 
z
M 2653 3081 
Q 2653 3566 2395 3850 
Q 2138 4134 1775 4134 
Q 1400 4134 1122 3828 
Q 844 3522 844 3034 
Q 844 2597 1108 2323 
Q 1372 2050 1759 2050 
Q 2150 2050 2401 2323 
Q 2653 2597 2653 3081 
z
" transform="scale(0.015625)"/>
       </defs>
       <use xlink:href="#ArialMT-39"/>
       <use xlink:href="#ArialMT-30" x="55.615234"/>
       <use xlink:href="#ArialMT-30" x="111.230469"/>
      </g>
     </g>
    </g>
    <g id="ytick_3">
     <g id="line2d_8">
      <g>
       <use xlink:href="#m6e8b232de1" x="63" y="103.202983" style="fill: #262626; stroke: #262626; stroke-width: 0.8"/>
      </g>
     </g>
     <g id="text_8">
      <!-- 1000 -->
      <g style="fill: #262626" transform="translate(33.75625 106.781889) scale(0.1 -0.1)">
       <use xlink:href="#ArialMT-31"/>
       <use xlink:href="#ArialMT-30" x="55.615234"/>
       <use xlink:href="#ArialMT-30" x="111.230469"/>
       <use xlink:href="#ArialMT-30" x="166.845703"/>
      </g>
     </g>
    </g>
    <g id="ytick_4">
     <g id="line2d_9">
      <g>
       <use xlink:href="#m6e8b232de1" x="63" y="66.83489" style="fill: #262626; stroke: #262626; stroke-width: 0.8"/>
      </g>
     </g>
     <g id="text_9">
      <!-- 1100 -->
      <g style="fill: #262626" transform="translate(34.49375 70.413797) scale(0.1 -0.1)">
       <use xlink:href="#ArialMT-31"/>
       <use xlink:href="#ArialMT-31" x="48.240234"/>
       <use xlink:href="#ArialMT-30" x="103.855469"/>
       <use xlink:href="#ArialMT-30" x="159.470703"/>
      </g>
     </g>
    </g>
    <g id="ytick_5">
     <g id="line2d_10">
      <g>
       <use xlink:href="#m6e8b232de1" x="63" y="30.466798" style="fill: #262626; stroke: #262626; stroke-width: 0.8"/>
      </g>
     </g>
     <g id="text_10">
      <!-- 1200 -->
      <g style="fill: #262626" transform="translate(33.75625 34.045704) scale(0.1 -0.1)">
       <use xlink:href="#ArialMT-31"/>
       <use xlink:href="#ArialMT-32" x="55.615234"/>
       <use xlink:href="#ArialMT-30" x="111.230469"/>
       <use xlink:href="#ArialMT-30" x="166.845703"/>
      </g>
     </g>
    </g>
   </g>
   <g id="line2d_11">
    <path d="M 80.754545 125.983295 
L 82.00873 125.96365 
L 82.949368 125.925604 
L 83.419687 126.241827 
L 83.733233 126.729968 
L 84.203552 127.973884 
L 84.830644 130.54611 
L 87.652559 145.088137 
L 92.198977 171.266971 
L 93.92348 178.876458 
L 94.707345 181.513945 
L 95.49121 183.335329 
L 96.118302 184.264249 
L 96.588621 184.608398 
L 97.05894 184.678576 
L 97.529259 184.510116 
L 97.999579 184.127083 
L 98.626671 183.210385 
L 99.253763 181.808219 
L 100.037628 179.46879 
L 100.978266 175.860432 
L 102.23245 169.610903 
L 103.486635 162.052531 
L 105.211138 150.008498 
L 107.092414 136.828252 
L 108.189825 130.501737 
L 108.816918 128.004161 
L 109.287237 126.855561 
L 109.757556 126.255323 
L 110.384648 125.970199 
L 110.698194 125.830577 
L 111.482059 125.298508 
L 112.109151 125.116756 
L 112.736243 125.24428 
L 113.676881 125.569848 
L 113.990427 125.52754 
L 114.774293 125.418573 
L 115.558158 125.563988 
L 118.223299 125.520969 
L 120.888441 125.714641 
L 121.829079 125.714952 
L 127.943227 125.999344 
L 129.040638 125.977568 
L 132.959964 125.515642 
L 133.430283 125.821521 
L 133.743829 126.424289 
L 134.057375 127.77382 
L 134.370921 130.22507 
L 134.84124 136.097671 
L 136.565744 161.699641 
L 137.036063 165.961908 
L 137.349609 167.306176 
L 137.506382 167.29001 
L 137.663155 166.71693 
L 137.976701 163.494493 
L 138.290247 157.194147 
L 138.760566 142.236391 
L 139.544431 107.413782 
L 140.328296 74.888978 
L 141.112161 51.604265 
L 141.58248 42.721977 
L 142.0528 37.349605 
L 142.523119 34.199744 
L 142.836665 33.48 
L 142.993438 33.672218 
L 143.306984 35.307003 
L 143.62053 38.665308 
L 144.090849 46.83723 
L 144.717941 62.991351 
L 145.501806 90.148679 
L 147.069536 149.079144 
L 147.383082 153.280946 
L 147.696629 154.760925 
L 147.853402 154.789467 
L 148.010175 154.455735 
L 148.323721 153.0112 
L 148.79404 149.501686 
L 149.421132 142.743629 
L 150.36177 132.322384 
L 150.675316 130.688772 
L 150.988862 129.890468 
L 151.302408 129.546831 
L 152.243046 129.044195 
L 153.026911 128.915139 
L 154.437869 127.931976 
L 154.751415 127.763631 
L 155.692053 126.86626 
L 156.005599 126.707039 
L 156.475918 126.577584 
L 157.10301 126.393346 
L 157.730102 126.50562 
L 158.200421 126.592545 
L 159.924925 126.630258 
L 161.335882 126.303314 
L 162.433293 126.328885 
L 165.098435 126.465332 
L 165.725527 126.4244 
L 166.195846 126.524244 
L 166.822938 126.549948 
L 167.606803 126.486375 
L 168.233895 126.556186 
L 169.644852 126.530859 
L 171.839675 126.457874 
L 172.780313 126.357941 
L 174.034497 126.369617 
L 174.661589 126.274146 
L 175.915774 126.245223 
L 177.326731 126.239585 
L 180.305418 126.204891 
L 180.932511 126.238342 
L 183.284106 126.158676 
L 185.792474 126.122073 
L 186.262793 126.157722 
L 186.889886 126.132572 
L 205.702649 126.260096 
L 206.329741 126.272681 
L 207.897471 126.2862 
L 212.287116 126.243581 
L 212.757435 126.169952 
L 213.698073 126.209042 
L 217.14708 126.176101 
L 219.968995 126.137411 
L 220.439314 126.158765 
L 222.32059 126.153881 
L 222.947682 126.070508 
L 227.4941 125.969266 
L 230.629561 125.923362 
L 231.413426 125.92869 
L 232.040518 125.923651 
L 233.921794 125.99173 
L 236.900482 125.846182 
L 237.527574 125.861942 
L 240.035942 125.829179 
L 240.819807 125.814862 
L 244.425587 125.865361 
L 246.620409 125.894217 
L 248.031367 125.917902 
L 248.815232 125.918745 
L 250.696508 125.893973 
L 251.166827 125.833907 
L 251.637146 125.864317 
L 259.946117 125.610003 
L 260.729982 125.666672 
L 264.022216 125.715462 
L 264.492535 125.742765 
L 265.746719 125.738569 
L 266.530584 125.766405 
L 267.000903 125.766649 
L 268.568633 125.77888 
L 270.763456 125.814751 
L 271.390548 125.837592 
L 273.115051 125.891065 
L 273.898916 125.924428 
L 274.996328 125.858568 
L 275.466647 125.834107 
L 276.093739 126.156345 
L 276.564058 126.60937 
L 277.034377 127.347565 
L 277.347923 128.089443 
L 277.661469 129.263393 
L 278.131788 132.10101 
L 278.445334 135.433676 
L 279.385972 148.965426 
L 280.32661 161.719284 
L 280.79693 165.83133 
L 281.110476 166.916406 
L 281.267249 166.694644 
L 281.424022 165.87121 
L 281.737568 162.051626 
L 282.051114 155.124099 
L 282.678206 133.554291 
L 284.089163 72.893533 
L 284.716255 53.598437 
L 285.186574 44.353945 
L 285.656893 38.966574 
L 286.127213 35.968597 
L 286.440759 35.164761 
L 286.597532 35.197257 
L 286.754305 35.569341 
L 287.067851 37.430406 
L 287.381397 40.922887 
L 287.851716 49.408811 
L 288.478808 66.493177 
L 289.262673 95.283286 
L 290.360084 136.871475 
L 290.67363 141.555738 
L 290.987176 143.226618 
L 291.143949 143.026627 
L 291.457495 141.246967 
L 292.084588 135.306475 
L 292.868453 127.815307 
L 293.338772 124.961508 
L 293.809091 123.411291 
L 293.965864 123.314888 
L 294.122637 123.410004 
L 294.436183 124.301914 
L 295.376821 128.542868 
L 295.690367 128.7717 
L 296.160686 128.211884 
L 296.944551 127.002729 
L 297.258098 126.780379 
L 297.571644 126.848236 
L 298.355509 127.470538 
L 298.669055 127.3853 
L 299.296147 127.053184 
L 300.236785 126.518939 
L 300.863877 126.529393 
L 301.490969 126.57552 
L 302.745154 126.058278 
L 303.0587 125.935038 
L 305.253522 125.884739 
L 305.723841 125.919788 
L 307.918663 125.913351 
L 308.545756 125.911376 
L 310.740578 125.790267 
L 311.210897 125.84778 
L 315.757315 125.987712 
L 317.481818 125.874905 
L 319.206321 125.845183 
L 319.990187 125.879301 
L 321.087598 125.972152 
L 322.028236 125.929511 
L 323.909512 125.86616 
L 325.790789 125.767071 
L 327.828838 125.705895 
L 328.769476 125.685629 
L 330.650753 125.633154 
L 331.591391 125.696039 
L 332.06171 125.670424 
L 333.62944 125.69493 
L 335.040397 125.701922 
L 335.824262 125.79333 
L 338.646177 125.791821 
L 340.213907 125.787537 
L 340.684226 125.830955 
L 350.404154 125.973661 
L 350.874473 125.984383 
L 351.658338 125.958678 
L 352.598977 126.091374 
L 353.853161 126.0783 
L 362.005358 126.056213 
L 362.318904 126.107644 
L 363.102769 126.034549 
L 364.200181 126.077123 
L 372.195605 126.163027 
L 374.390427 125.832198 
L 374.860747 126.04871 
L 375.331066 126.722777 
L 375.644612 127.840922 
L 375.958158 129.777017 
L 376.428477 134.887494 
L 377.369115 149.249531 
L 378.15298 160.269283 
L 378.623299 163.848055 
L 378.780072 164.178059 
L 378.936845 163.941692 
L 379.093618 163.024645 
L 379.407164 158.821675 
L 379.877483 146.304277 
L 380.504576 121.203945 
L 381.601987 76.016023 
L 382.229079 57.897147 
L 382.699398 49.099071 
L 383.169717 43.887664 
L 383.640036 41.025984 
L 383.953582 40.395781 
L 384.110355 40.559205 
L 384.423901 41.984393 
L 384.737447 44.994451 
L 385.207766 52.606754 
L 385.678085 63.862955 
L 386.305178 84.181164 
L 387.872908 139.372643 
L 388.186454 142.626189 
L 388.343227 143.097678 
L 388.5 142.986303 
L 388.813546 141.36645 
L 389.754184 133.438488 
L 390.381276 128.224869 
L 390.694822 126.606596 
L 391.165141 125.385565 
L 391.321915 125.346942 
L 391.635461 125.798547 
L 392.419326 127.915638 
L 392.889645 128.405378 
L 393.203191 128.479872 
L 393.67351 128.237611 
L 395.398013 126.549127 
L 396.965744 125.695041 
L 397.592836 125.554709 
L 399.787658 125.963251 
L 401.198615 126.007734 
L 402.296026 125.940787 
L 402.766346 125.872752 
L 403.706984 125.876126 
L 405.117941 125.983695 
L 405.745033 125.946558 
L 406.685671 125.89475 
L 412.799819 125.911908 
L 413.897231 125.849423 
L 414.681096 125.857236 
L 415.621734 125.847736 
L 418.130102 125.683631 
L 421.892655 125.416753 
L 424.401023 125.271405 
L 425.028116 125.230118 
L 425.968754 125.247942 
L 426.752619 125.130385 
L 427.693257 125.070585 
L 428.477122 125.131095 
L 430.044852 125.095247 
L 431.142264 125.130008 
L 431.612583 125.162771 
L 435.845455 125.258797 
L 435.845455 125.258797 
" clip-path="url(#p02ecc54188)" style="fill: none; stroke: #1f77b4; stroke-width: 1.5; stroke-linecap: round"/>
   </g>
   <g id="line2d_12">
    <defs>
     <path id="mcd8e94934d" d="M -3 3 
L 3 -3 
M -3 -3 
L 3 3 
" style="stroke: #ff7f0e"/>
    </defs>
    <g clip-path="url(#p02ecc54188)">
     <use xlink:href="#mcd8e94934d" x="142.836665" y="33.48" style="fill: #ff7f0e; stroke: #ff7f0e"/>
     <use xlink:href="#mcd8e94934d" x="286.440759" y="35.164761" style="fill: #ff7f0e; stroke: #ff7f0e"/>
     <use xlink:href="#mcd8e94934d" x="383.953582" y="40.395781" style="fill: #ff7f0e; stroke: #ff7f0e"/>
    </g>
   </g>
   <g id="LineCollection_1">
    <path d="M 119.32071 184.68 
L 119.32071 33.48 
" clip-path="url(#p02ecc54188)" style="fill: none; stroke-dasharray: 5.55,2.4; stroke-dashoffset: 0; stroke: #008000; stroke-width: 1.5"/>
    <path d="M 158.513967 184.68 
L 158.513967 33.48 
" clip-path="url(#p02ecc54188)" style="fill: none; stroke-dasharray: 5.55,2.4; stroke-dashoffset: 0; stroke: #008000; stroke-width: 1.5"/>
   </g>
   <g id="LineCollection_2">
    <path d="M 262.924804 184.68 
L 262.924804 33.48 
" clip-path="url(#p02ecc54188)" style="fill: none; stroke-dasharray: 5.55,2.4; stroke-dashoffset: 0; stroke: #008000; stroke-width: 1.5"/>
    <path d="M 302.118061 184.68 
L 302.118061 33.48 
" clip-path="url(#p02ecc54188)" style="fill: none; stroke-dasharray: 5.55,2.4; stroke-dashoffset: 0; stroke: #008000; stroke-width: 1.5"/>
   </g>
   <g id="LineCollection_3">
    <path d="M 360.437628 184.68 
L 360.437628 33.48 
" clip-path="url(#p02ecc54188)" style="fill: none; stroke-dasharray: 5.55,2.4; stroke-dashoffset: 0; stroke: #008000; stroke-width: 1.5"/>
    <path d="M 399.630885 184.68 
L 399.630885 33.48 
" clip-path="url(#p02ecc54188)" style="fill: none; stroke-dasharray: 5.55,2.4; stroke-dashoffset: 0; stroke: #008000; stroke-width: 1.5"/>
   </g>
   <g id="patch_3">
    <path d="M 63 192.24 
L 63 25.92 
" style="fill: none; stroke: #262626; stroke-width: 0.8; stroke-linejoin: miter; stroke-linecap: square"/>
   </g>
   <g id="patch_4">
    <path d="M 63 192.24 
L 453.6 192.24 
" style="fill: none; stroke: #262626; stroke-width: 0.8; stroke-linejoin: miter; stroke-linecap: square"/>
   </g>
  </g>
  <g id="text_11">
   <!-- displacement -->
   <g style="fill: #262626" transform="translate(18.669375 143.350313) rotate(-90) scale(0.12 -0.12)">
    <defs>
     <path id="ArialMT-64" d="M 2575 0 
L 2575 419 
Q 2259 -75 1647 -75 
Q 1250 -75 917 144 
Q 584 363 401 755 
Q 219 1147 219 1656 
Q 219 2153 384 2558 
Q 550 2963 881 3178 
Q 1213 3394 1622 3394 
Q 1922 3394 2156 3267 
Q 2391 3141 2538 2938 
L 2538 4581 
L 3097 4581 
L 3097 0 
L 2575 0 
z
M 797 1656 
Q 797 1019 1065 703 
Q 1334 388 1700 388 
Q 2069 388 2326 689 
Q 2584 991 2584 1609 
Q 2584 2291 2321 2609 
Q 2059 2928 1675 2928 
Q 1300 2928 1048 2622 
Q 797 2316 797 1656 
z
" transform="scale(0.015625)"/>
     <path id="ArialMT-69" d="M 425 3934 
L 425 4581 
L 988 4581 
L 988 3934 
L 425 3934 
z
M 425 0 
L 425 3319 
L 988 3319 
L 988 0 
L 425 0 
z
" transform="scale(0.015625)"/>
     <path id="ArialMT-73" d="M 197 991 
L 753 1078 
Q 800 744 1014 566 
Q 1228 388 1613 388 
Q 2000 388 2187 545 
Q 2375 703 2375 916 
Q 2375 1106 2209 1216 
Q 2094 1291 1634 1406 
Q 1016 1563 777 1677 
Q 538 1791 414 1992 
Q 291 2194 291 2438 
Q 291 2659 392 2848 
Q 494 3038 669 3163 
Q 800 3259 1026 3326 
Q 1253 3394 1513 3394 
Q 1903 3394 2198 3281 
Q 2494 3169 2634 2976 
Q 2775 2784 2828 2463 
L 2278 2388 
Q 2241 2644 2061 2787 
Q 1881 2931 1553 2931 
Q 1166 2931 1000 2803 
Q 834 2675 834 2503 
Q 834 2394 903 2306 
Q 972 2216 1119 2156 
Q 1203 2125 1616 2013 
Q 2213 1853 2448 1751 
Q 2684 1650 2818 1456 
Q 2953 1263 2953 975 
Q 2953 694 2789 445 
Q 2625 197 2315 61 
Q 2006 -75 1616 -75 
Q 969 -75 630 194 
Q 291 463 197 991 
z
" transform="scale(0.015625)"/>
     <path id="ArialMT-70" d="M 422 -1272 
L 422 3319 
L 934 3319 
L 934 2888 
Q 1116 3141 1344 3267 
Q 1572 3394 1897 3394 
Q 2322 3394 2647 3175 
Q 2972 2956 3137 2557 
Q 3303 2159 3303 1684 
Q 3303 1175 3120 767 
Q 2938 359 2589 142 
Q 2241 -75 1856 -75 
Q 1575 -75 1351 44 
Q 1128 163 984 344 
L 984 -1272 
L 422 -1272 
z
M 931 1641 
Q 931 1000 1190 694 
Q 1450 388 1819 388 
Q 2194 388 2461 705 
Q 2728 1022 2728 1688 
Q 2728 2322 2467 2637 
Q 2206 2953 1844 2953 
Q 1484 2953 1207 2617 
Q 931 2281 931 1641 
z
" transform="scale(0.015625)"/>
     <path id="ArialMT-6c" d="M 409 0 
L 409 4581 
L 972 4581 
L 972 0 
L 409 0 
z
" transform="scale(0.015625)"/>
     <path id="ArialMT-61" d="M 2588 409 
Q 2275 144 1986 34 
Q 1697 -75 1366 -75 
Q 819 -75 525 192 
Q 231 459 231 875 
Q 231 1119 342 1320 
Q 453 1522 633 1644 
Q 813 1766 1038 1828 
Q 1203 1872 1538 1913 
Q 2219 1994 2541 2106 
Q 2544 2222 2544 2253 
Q 2544 2597 2384 2738 
Q 2169 2928 1744 2928 
Q 1347 2928 1158 2789 
Q 969 2650 878 2297 
L 328 2372 
Q 403 2725 575 2942 
Q 747 3159 1072 3276 
Q 1397 3394 1825 3394 
Q 2250 3394 2515 3294 
Q 2781 3194 2906 3042 
Q 3031 2891 3081 2659 
Q 3109 2516 3109 2141 
L 3109 1391 
Q 3109 606 3145 398 
Q 3181 191 3288 0 
L 2700 0 
Q 2613 175 2588 409 
z
M 2541 1666 
Q 2234 1541 1622 1453 
Q 1275 1403 1131 1340 
Q 988 1278 909 1158 
Q 831 1038 831 891 
Q 831 666 1001 516 
Q 1172 366 1500 366 
Q 1825 366 2078 508 
Q 2331 650 2450 897 
Q 2541 1088 2541 1459 
L 2541 1666 
z
" transform="scale(0.015625)"/>
     <path id="ArialMT-63" d="M 2588 1216 
L 3141 1144 
Q 3050 572 2676 248 
Q 2303 -75 1759 -75 
Q 1078 -75 664 370 
Q 250 816 250 1647 
Q 250 2184 428 2587 
Q 606 2991 970 3192 
Q 1334 3394 1763 3394 
Q 2303 3394 2647 3120 
Q 2991 2847 3088 2344 
L 2541 2259 
Q 2463 2594 2264 2762 
Q 2066 2931 1784 2931 
Q 1359 2931 1093 2626 
Q 828 2322 828 1663 
Q 828 994 1084 691 
Q 1341 388 1753 388 
Q 2084 388 2306 591 
Q 2528 794 2588 1216 
z
" transform="scale(0.015625)"/>
     <path id="ArialMT-65" d="M 2694 1069 
L 3275 997 
Q 3138 488 2766 206 
Q 2394 -75 1816 -75 
Q 1088 -75 661 373 
Q 234 822 234 1631 
Q 234 2469 665 2931 
Q 1097 3394 1784 3394 
Q 2450 3394 2872 2941 
Q 3294 2488 3294 1666 
Q 3294 1616 3291 1516 
L 816 1516 
Q 847 969 1125 678 
Q 1403 388 1819 388 
Q 2128 388 2347 550 
Q 2566 713 2694 1069 
z
M 847 1978 
L 2700 1978 
Q 2663 2397 2488 2606 
Q 2219 2931 1791 2931 
Q 1403 2931 1139 2672 
Q 875 2413 847 1978 
z
" transform="scale(0.015625)"/>
     <path id="ArialMT-6d" d="M 422 0 
L 422 3319 
L 925 3319 
L 925 2853 
Q 1081 3097 1340 3245 
Q 1600 3394 1931 3394 
Q 2300 3394 2536 3241 
Q 2772 3088 2869 2813 
Q 3263 3394 3894 3394 
Q 4388 3394 4653 3120 
Q 4919 2847 4919 2278 
L 4919 0 
L 4359 0 
L 4359 2091 
Q 4359 2428 4304 2576 
Q 4250 2725 4106 2815 
Q 3963 2906 3769 2906 
Q 3419 2906 3187 2673 
Q 2956 2441 2956 1928 
L 2956 0 
L 2394 0 
L 2394 2156 
Q 2394 2531 2256 2718 
Q 2119 2906 1806 2906 
Q 1569 2906 1367 2781 
Q 1166 2656 1075 2415 
Q 984 2175 984 1722 
L 984 0 
L 422 0 
z
" transform="scale(0.015625)"/>
     <path id="ArialMT-6e" d="M 422 0 
L 422 3319 
L 928 3319 
L 928 2847 
Q 1294 3394 1984 3394 
Q 2284 3394 2536 3286 
Q 2788 3178 2913 3003 
Q 3038 2828 3088 2588 
Q 3119 2431 3119 2041 
L 3119 0 
L 2556 0 
L 2556 2019 
Q 2556 2363 2490 2533 
Q 2425 2703 2258 2804 
Q 2091 2906 1866 2906 
Q 1506 2906 1245 2678 
Q 984 2450 984 1813 
L 984 0 
L 422 0 
z
" transform="scale(0.015625)"/>
     <path id="ArialMT-74" d="M 1650 503 
L 1731 6 
Q 1494 -44 1306 -44 
Q 1000 -44 831 53 
Q 663 150 594 308 
Q 525 466 525 972 
L 525 2881 
L 113 2881 
L 113 3319 
L 525 3319 
L 525 4141 
L 1084 4478 
L 1084 3319 
L 1650 3319 
L 1650 2881 
L 1084 2881 
L 1084 941 
Q 1084 700 1114 631 
Q 1144 563 1211 522 
Q 1278 481 1403 481 
Q 1497 481 1650 503 
z
" transform="scale(0.015625)"/>
    </defs>
    <use xlink:href="#ArialMT-64"/>
    <use xlink:href="#ArialMT-69" x="55.615234"/>
    <use xlink:href="#ArialMT-73" x="77.832031"/>
    <use xlink:href="#ArialMT-70" x="127.832031"/>
    <use xlink:href="#ArialMT-6c" x="183.447266"/>
    <use xlink:href="#ArialMT-61" x="205.664062"/>
    <use xlink:href="#ArialMT-63" x="261.279297"/>
    <use xlink:href="#ArialMT-65" x="311.279297"/>
    <use xlink:href="#ArialMT-6d" x="366.894531"/>
    <use xlink:href="#ArialMT-65" x="450.195312"/>
    <use xlink:href="#ArialMT-6e" x="505.810547"/>
    <use xlink:href="#ArialMT-74" x="561.425781"/>
   </g>
  </g>
 </g>
 <defs>
  <clipPath id="p02ecc54188">
   <rect x="63" y="25.92" width="390.6" height="166.32"/>
  </clipPath>
 </defs>
</svg>
